<svg xmlns="http://www.w3.org/2000/svg" xmlns:xlink="http://www.w3.org/1999/xlink" viewBox="0 0 314.66 313.86"><defs><style>.cls-1{fill:url(#Degradado_sin_nombre_2);}.cls-2{fill:#fff;}</style><radialGradient id="Degradado_sin_nombre_2" cx="-1116.36" cy="1483.59" r="13.3" gradientTransform="matrix(22.07, 0, 0, -22.06, 24687.44, 25264.5)" gradientUnits="userSpaceOnUse"><stop offset="0" stop-color="#9dd5f6"/><stop offset="0.07" stop-color="#98d3f5"/><stop offset="0.16" stop-color="#89cef3"/><stop offset="0.25" stop-color="#70c6ef"/><stop offset="0.35" stop-color="#4ebbea"/><stop offset="0.46" stop-color="#23ade3"/><stop offset="0.5" stop-color="#0da6e0"/><stop offset="1" stop-color="#2e77bc"/></radialGradient></defs><g id="Capa_2" data-name="Capa 2"><g id="Capa_1-2" data-name="Capa 1"><path class="cls-1" d="M312.78,0H0V313.86H312.78V210.28a11.87,11.87,0,0,0,1.85-6.9,10.76,10.76,0,0,0-1.85-6.88"/><path class="cls-2" d="M28.19,135.81l-6-14.63-6,14.63ZM160.73,130a8.14,8.14,0,0,1-4.35.76H145.74v-8.17h10.83a9,9,0,0,1,4.16.67,3.34,3.34,0,0,1,1.85,3.24,3.73,3.73,0,0,1-.42,2,3.82,3.82,0,0,1-1.43,1.5Zm76.17,5.84-6.08-14.63-6,14.63Zm-142,15.88h-9V122.88L73.15,151.69H65.43L52.66,122.86v28.83H34.73l-3.38-8.21H13l-3.41,8.21H.13l15.74-36.78H28.94l15,34.82V114.91H58.23l11.51,25,10.57-25H94.94v36.78Zm35.92,0H101.46V114.91h29.36v7.67H110.26v6.65h20.07v7.54H110.26v7.35h20.56Zm41.41-26.88a10.38,10.38,0,0,1-6.2,9.81,10.06,10.06,0,0,1,4.35,3.1,10.62,10.62,0,0,1,1.45,6.74v7.23H163V147a11.07,11.07,0,0,0-1.33-7.17,8.62,8.62,0,0,0-6.4-1.57h-9.43v13.37H137V114.9h20.22a20.64,20.64,0,0,1,10.65,1.76,8.56,8.56,0,0,1,4.35,8.16Zm14.06,26.88h-9V114.91h9Zm104.06,0H277.89l-16.65-27.61v27.61h-17.9l-3.42-8.21H221.67l-3.33,8.21H208.06a15.66,15.66,0,0,1-13.32-4.63,15.77,15.77,0,0,1-3.67-6.25,15.53,15.53,0,0,1-.45-7.23,19.57,19.57,0,0,1,4.73-14.38,17.89,17.89,0,0,1,13.31-4.29h8.51v7.88h-8.33a8.4,8.4,0,0,0-3.62.35,8.51,8.51,0,0,0-3.14,1.83,12.14,12.14,0,0,0-2.52,8.33,12.69,12.69,0,0,0,2.42,8.63,8.49,8.49,0,0,0,6.12,1.91h4l12.39-28.93h13.17l14.89,34.78V114.91h13.38l15.45,25.61V114.91h9v36.78ZM0,158.91H15l3.4-8.17H26l3.38,8.17H58.94v-6.24l2.66,6.27H76.94l2.66-6.36v6.33H153V145.5h1.43c1,0,1.33.13,1.33,1.77v11.64h38v-3.13a30,30,0,0,0,14.11,3.13h16l3.42-8.17h7.58l3.34,8.17h30.7v-7.76l4.67,7.76h24.6V107.62H273.73v6.06l-3.42-6.06H245.26v6.06l-3.14-6.06H208.27a30.54,30.54,0,0,0-14.63,3v-3H170.27v3a14.51,14.51,0,0,0-9.92-3H75l-5.72,13.31-5.88-13.31H36.53v6.06l-3-6.06H10.64L0,132v26.9Z"/><path class="cls-2" d="M312.74,186h-16a6.08,6.08,0,0,0-3.55.66,3,3,0,0,0-1,1.15,2.9,2.9,0,0,0-.29,1.51,2.79,2.79,0,0,0,.51,1.7,2.71,2.71,0,0,0,1.42,1,10.22,10.22,0,0,0,3.39.42l4.76.13a13.87,13.87,0,0,1,10,3,4.35,4.35,0,0,1,.81.9Zm0,24.26a13.69,13.69,0,0,1-12,4.71h-17v-7.91h16.91a5,5,0,0,0,3.56-.92,3.33,3.33,0,0,0,.77-1.09,3.1,3.1,0,0,0,.26-1.31,2.94,2.94,0,0,0-.25-1.34,3.14,3.14,0,0,0-.82-1.09,4.46,4.46,0,0,0-3.1-.81c-8.25-.28-18.55.25-18.55-11.39,0-5.32,3.39-10.95,12.61-10.95h17.51v-7.32H296.44a18.33,18.33,0,0,0-11,3v-3H261.37a16.65,16.65,0,0,0-10.5,3v-3h-43v3a22.93,22.93,0,0,0-11.86-3H167.7v3a20.07,20.07,0,0,0-12.38-3H123.6l-7.27,7.85-6.79-7.85H62.16V222.2h46.48l7.48-8,7,8h28.66V210.13h2.82a29.85,29.85,0,0,0,12.24-1.81v13.85h23.63V208.8h1.15c1.45,0,1.59,0,1.59,1.52v11.87h71.85a20.46,20.46,0,0,0,12-3.29v3.29h22.78a30.61,30.61,0,0,0,12.89-2.37v-9.53Zm-35.05-14.63a10.16,10.16,0,0,1,2.15,3.62,10.35,10.35,0,0,1,.51,4.17c0,7.92-4.95,11.61-13.81,11.61H249.43v-8h17.06a5.15,5.15,0,0,0,3.59-.92,3.33,3.33,0,0,0,.77-1.09,3.27,3.27,0,0,0,.27-1.31,3,3,0,0,0-.27-1.33,3.15,3.15,0,0,0-.81-1.1,4.57,4.57,0,0,0-3.12-.81c-8.23-.28-18.52.25-18.52-11.39,0-5.32,3.35-10.95,12.57-10.95H278.6V186H262.47a6,6,0,0,0-3.52.67,3,3,0,0,0-1,1.25,3.07,3.07,0,0,0-.25,1.58,3.19,3.19,0,0,0,.59,1.49,3.09,3.09,0,0,0,1.26,1,10.1,10.1,0,0,0,3.42.41l4.73.14a14.17,14.17,0,0,1,10,3Zm-79.31-2.28a8.33,8.33,0,0,1-4.34.76H183.42V185.8h10.83a8.71,8.71,0,0,1,4.19.66,3.51,3.51,0,0,1,1.39,1.39,3.43,3.43,0,0,1,.43,1.93,4.06,4.06,0,0,1-.47,2,4,4,0,0,1-1.43,1.52Zm5.32,4.58a9.52,9.52,0,0,1,4.31,3.09,10.61,10.61,0,0,1,1.45,6.65V215h-8.82v-4.6c0-2.21.21-5.5-1.42-7.2a8.87,8.87,0,0,0-3.06-1.48,8.66,8.66,0,0,0-3.4-.16h-9.39V215H174.5V178.2h20.29a21.81,21.81,0,0,1,10.58,1.73,8.58,8.58,0,0,1,4.52,8.17,10.28,10.28,0,0,1-6.22,9.79Zm11.11-19.69h29.34v7.61H223.58v6.65h20.08V200H223.58v7.31h20.59V215H214.83Zm-59.3,17H144.17v-9.32h11.45c3.18,0,5.33,1.33,5.33,4.51s-2.11,4.67-5.49,4.67ZM135.41,211.7l-13.49-15,13.49-14.5Zm-34.85-4.32H79v-7.32H98.24v-7.61H79V185.8h22l9.62,10.72Zm69.87-17c0,10.21-7.62,12.33-15.31,12.33h-11V215H127.07l-10.82-12.17L105,215H70.19V178.26h35.35l10.82,12.05,11.18-12.05h28.08c6.91-.06,14.76,1.87,14.76,12.06Z"/></g></g></svg>