<svg xmlns="http://www.w3.org/2000/svg" viewBox="0 0 483.79 42.06"><defs><style>.cls-1,.cls-2{fill:#d50006;}.cls-1{fill-rule:evenodd;}</style></defs><g id="Capa_2" data-name="Capa 2"><g id="Capa_1-2" data-name="Capa 1"><path class="cls-1" d="M249.2,0A4,4,0,0,1,252,1.15a3.93,3.93,0,0,1,1.15,2.78v32.6A3.89,3.89,0,0,1,252,39.31a3.91,3.91,0,0,1-5.56,0,3.89,3.89,0,0,1-1.15-2.78V3.93a3.93,3.93,0,0,1,1.15-2.78A4,4,0,0,1,249.2,0Z"/><path class="cls-2" d="M301,1.31c2.16.36,3.62,1.64,3.26,3.8a4,4,0,0,1-.55,1.45,3.9,3.9,0,0,1-1.06,1.12,3.84,3.84,0,0,1-1.41.64,4,4,0,0,1-1.55,0,58.84,58.84,0,0,0-20.58-.81,15.15,15.15,0,0,0-11.14,7.28,13.9,13.9,0,0,0-2.13,5.47,7.74,7.74,0,0,0,.74,5.3l.76-.56c.74,1,.93,2.56,2.1,3.45a23.62,23.62,0,0,0,4.25,2.58A43.26,43.26,0,0,0,305,32.64a4,4,0,0,1,5.1,2.31,3.2,3.2,0,0,1,.35,1.32,2.93,2.93,0,0,1-.26,1.33,3,3,0,0,1-.81,1.09,3.24,3.24,0,0,1-1.21.62A50.78,50.78,0,0,1,271,37.65a31.35,31.35,0,0,1-5.68-3.46,21.67,21.67,0,0,1-4.46-4.56h0a14.5,14.5,0,0,1-2.95-9.92A22.45,22.45,0,0,1,261,10.63,23.52,23.52,0,0,1,277.68.92,64,64,0,0,1,301,1.29Z"/><path class="cls-1" d="M286,17.93H261.65v5.8H286a2.94,2.94,0,0,0,3-2.9h0a2.94,2.94,0,0,0-3-2.9Z"/><path class="cls-1" d="M322.87,11.92V36.53a3.94,3.94,0,0,1-3.93,3.94,3.83,3.83,0,0,1-1.46-.32,3.75,3.75,0,0,1-1.22-.86,3.83,3.83,0,0,1-.78-1.28,3.7,3.7,0,0,1-.21-1.48V14.38c-1.07-9.35,8.35-20,19-10a3.33,3.33,0,0,1,.36.39h0c.08.09.14.19.21.28,5.81,7.61,10,15.85,15.29,23.79l0,.09c.33.54.61,1,.93,1.57,3.15,4.64,7.62,4.57,7.76-1.21.11-5.05.1-19-.33-24.83a3.94,3.94,0,0,1,.28-1.52,3.72,3.72,0,0,1,.85-1.29A3.81,3.81,0,0,1,361,.76a3.76,3.76,0,0,1,1.52-.28,3.61,3.61,0,0,1,1.41.34A3.53,3.53,0,0,1,365,1.7a3.44,3.44,0,0,1,.7,1.27,3.39,3.39,0,0,1,.13,1.45V25.07a20,20,0,0,1-3.07,13.31,9.69,9.69,0,0,1-7.91,3,9,9,0,0,1-1.56-.17C347.31,40,335.48,19,333.42,16c-.82-1.19-1.61-2.31-2.34-3.32-.62-.86-1.3-1.79-2.06-2.78-3.47-3-6.17-.58-6.18,2Zm27.37,17a4,4,0,0,1,.5,1.79Z"/><path class="cls-2" d="M187.08,2.62a4,4,0,0,0-.87-1.28,4.13,4.13,0,0,0-1.29-.85,4,4,0,0,0-3,0,3.88,3.88,0,0,0-1.28.87,4.07,4.07,0,0,0-.85,1.3,3.89,3.89,0,0,0-.28,1.51,4,4,0,0,0,.31,1.52,103.91,103.91,0,0,0,16.63,26.4A23.11,23.11,0,0,0,209,41.3c4.33.52,8-2.1,13.26-6.77a56,56,0,0,0,10.85-14.18A138.51,138.51,0,0,0,240.47,6a4,4,0,0,0,.35-1.51A4.21,4.21,0,0,0,240.56,3a4,4,0,0,0-.83-1.3,4,4,0,0,0-1.26-.9,4,4,0,0,0-3-.08,4,4,0,0,0-1.31.83,3.75,3.75,0,0,0-.89,1.26,137.7,137.7,0,0,1-7.06,13.52c-2.34,3.93-11.14,17.8-16.7,17.14-6.91-.83-18.78-22.27-22.43-30.81Z"/><path class="cls-1" d="M172,0A3.94,3.94,0,0,1,176,3.93v32.6a3.94,3.94,0,1,1-7.87,0V3.93A3.93,3.93,0,0,1,172,0Z"/><path class="cls-2" d="M5.06,9.39a3.69,3.69,0,0,1-1.51.2A3.8,3.8,0,0,1,.89,8.25,4,4,0,0,1,.15,6.91a4,4,0,0,1,.35-3A3.93,3.93,0,0,1,2.88,2,57.68,57.68,0,0,1,41.05,5.38a26.76,26.76,0,0,1,9,8.19,16.29,16.29,0,0,1,2.31,9.87,18,18,0,0,1-3,8.06,17.76,17.76,0,0,1-6.43,5.71,31.34,31.34,0,0,1-9.05,3.44,58.18,58.18,0,0,1-9,1.18,43.72,43.72,0,0,1-8.17,0,26.07,26.07,0,0,1-8.35-2.54c-1.16-.57-2.56-1.63-2.78-2.79l-.11.31V14.32c1.35-3.88,6.79-2.73,6.83,0L12.8,32.6c-.86,3.71,9.34,2.41,11.55,2.27a50,50,0,0,0,7.8-1,23.65,23.65,0,0,0,6.79-2.56,11.64,11.64,0,0,0,5.57-8.6A9.83,9.83,0,0,0,43.16,17a16.2,16.2,0,0,0-5.5-5.57,41.48,41.48,0,0,0-32.56-2Z"/><path class="cls-2" d="M110.28,2.62a4,4,0,0,0-7.3,3.1,104.36,104.36,0,0,0,16.63,26.4,23.17,23.17,0,0,0,12.62,9.18c4.32.52,8-2.1,13.25-6.77a55.88,55.88,0,0,0,10.85-14.18A141.63,141.63,0,0,0,163.67,6a4,4,0,1,0-7.24-3.23,135.57,135.57,0,0,1-7.06,13.52c-2.34,3.93-11.13,17.8-16.7,17.14-6.91-.83-18.78-22.27-22.43-30.81Z"/><path class="cls-2" d="M104.81,39a3.86,3.86,0,0,0,.88,1.27,3.81,3.81,0,0,0,1.29.85,3.92,3.92,0,0,0,3,0,4,4,0,0,0,1.28-.87,4.3,4.3,0,0,0,.85-1.3,4,4,0,0,0,0-3A104,104,0,0,0,95.48,9.46,23.19,23.19,0,0,0,82.86.27c-4.32-.52-8,2.11-13.25,6.77A55.76,55.76,0,0,0,58.76,21.23a140.59,140.59,0,0,0-7.34,14.36,4,4,0,0,0-.08,3,4.14,4.14,0,0,0,.82,1.31,4,4,0,0,0,2.77,1.23,3.83,3.83,0,0,0,1.53-.26,3.91,3.91,0,0,0,1.31-.82,4.12,4.12,0,0,0,.89-1.26,134.65,134.65,0,0,1,7.06-13.53c2.34-3.92,11.13-17.8,16.7-17.13C89.33,9,101.19,30.42,104.85,39Z"/><path class="cls-2" d="M376.54,9.39a3.71,3.71,0,0,1-1.51.2,3.8,3.8,0,0,1-3.4-2.68A4,4,0,0,1,374.36,2a57.65,57.65,0,0,1,38.16,3.37,26.67,26.67,0,0,1,9,8.19,16.15,16.15,0,0,1,2.31,9.87,17.79,17.79,0,0,1-9.43,13.77,31.4,31.4,0,0,1-9.06,3.44,58,58,0,0,1-9,1.18,42.78,42.78,0,0,1-8.16,0,26,26,0,0,1-8.35-2.54c-1.17-.57-2.56-1.63-2.78-2.79l-.11.31V14.32c1.34-3.88,6.79-2.73,6.82,0l.52,18.28c-.85,3.71,9.35,2.41,11.55,2.28a50.11,50.11,0,0,0,7.81-1,23.65,23.65,0,0,0,6.79-2.56,11.66,11.66,0,0,0,5.52-8.6A9.83,9.83,0,0,0,414.59,17a16.2,16.2,0,0,0-5.5-5.57,41.53,41.53,0,0,0-32.56-1.94Z"/><path class="cls-2" d="M430.06,39a4,4,0,0,1-2.17,2.12,4,4,0,0,1-5.13-5.23,104,104,0,0,1,16.63-26.4A23.19,23.19,0,0,1,452,.27c4.32-.52,8,2.11,13.25,6.77a56,56,0,0,1,10.85,14.19,139.56,139.56,0,0,1,7.34,14.36,4,4,0,0,1,.34,1.51,4.12,4.12,0,0,1-.26,1.52,4,4,0,0,1-.83,1.31,3.75,3.75,0,0,1-1.26.89,3.86,3.86,0,0,1-1.5.34,3.8,3.8,0,0,1-1.53-.26,3.91,3.91,0,0,1-1.31-.82,4.12,4.12,0,0,1-.89-1.26,134.65,134.65,0,0,0-7.06-13.53c-2.34-3.92-11.13-17.8-16.7-17.13C445.54,9,433.67,30.42,430,39Z"/></g></g></svg>