<svg xmlns="http://www.w3.org/2000/svg" viewBox="0 0 511.21 132.41"><defs><style>.cls-1{fill:#005297;}.cls-2{fill:#fff;}.cls-3{fill:#17100d;}</style></defs><g id="Capa_2" data-name="Capa 2"><g id="Capa_1-2" data-name="Capa 1"><path class="cls-1" d="M97.93,132.41a68.8,68.8,0,0,0,69.22-65.63A67.62,67.62,0,0,0,97.93,0H66.78A65.29,65.29,0,0,0,0,66.78a66.34,66.34,0,0,0,66.76,65.63Z"/><path class="cls-2" d="M80.66,102V30.24a38.39,38.39,0,0,1,0,71.71ZM28.51,66.09A38.51,38.51,0,0,1,53.17,30.24v71.69A38.44,38.44,0,0,1,28.51,66.09ZM66.92,5.48a60.6,60.6,0,1,0,42.85,17.76A60.61,60.61,0,0,0,66.92,5.48Z"/><path class="cls-3" d="M196.35,82.58c0,5.36,3.8,6,7.25,6a19.41,19.41,0,0,0,15-6.26,19.39,19.39,0,0,0,5-15.46,20.9,20.9,0,0,0-21.78-22.41c-2.85,0-4.18.2-5.44.27Zm-6.82-32.66c0-6.26-3.27-5.85-6.4-5.92V42.2c2.72.13,5.51.13,8.22.13,2.93,0,6.89-.13,12.05-.13a25.35,25.35,0,0,1,27.85,24.34c0,6.89-4,24.23-28.69,24.23-3.54,0-6.82-.15-10.1-.15s-6.19.07-9.33.15V89c4.18-.42,6.2-.56,6.4-5.29Z"/><path class="cls-3" d="M241.14,48.27a3.42,3.42,0,1,1,3.41-3.48,3.47,3.47,0,0,1-3.41,3.48ZM233.69,89H235c1.9,0,3.34,0,3.34-2.31V67.82c0-3.06-1-3.49-3.62-4.87V61.83a74.43,74.43,0,0,0,7.45-2.5,2.52,2.52,0,0,1,1.25-.36c.34,0,.49.42.49,1V86.65c0,2.31,1.53,2.31,3.48,2.31h1.18v1.81c-2.36,0-4.81-.15-7.31-.15s-5,.07-7.6.15Z"/><path class="cls-3" d="M255.2,68.25c0-2.58-.77-3.27-4-4.59V62.34A93.39,93.39,0,0,0,260.35,59c.21,0,.41.15.41.7v4.53A20.45,20.45,0,0,1,272.82,59c5.92,0,8,4.33,8,9.75v18c0,2.3,1.53,2.3,3.47,2.3h1.26v1.8c-2.44,0-4.89-.14-7.38-.14s-5,.07-7.53.14V89h1.25c1.95,0,3.34,0,3.34-2.3v-18c0-4-2.42-5.92-6.39-5.92a18.52,18.52,0,0,0-8.09,3.34V86.68c0,2.3,1.54,2.3,3.49,2.3h1.25v1.8c-2.43,0-4.87-.14-7.38-.14s-5,.07-7.52.14V89h1.26c1.94,0,3.33,0,3.33-2.3Z"/><path class="cls-3" d="M303.19,69.36c1.73,0,1.9-1,1.9-1.74a6,6,0,0,0-.31-2.45,5.89,5.89,0,0,0-5.75-4c-4.25,0-7.18,3.12-8,8.14Zm-12.35,2.23a16.07,16.07,0,0,0,0,4,11.62,11.62,0,0,0,10.23,12.05,13.38,13.38,0,0,0,5.18-1.37,13.17,13.17,0,0,0,4.22-3.3l.95.95a16.32,16.32,0,0,1-12.87,7.87,14,14,0,0,1-13.3-15.2c0-13.65,9.19-17.69,14.06-17.69a11,11,0,0,1,10.83,6.56,10.92,10.92,0,0,1,.94,4.36,7.6,7.6,0,0,1-.06,1.26l-.62.42Z"/><path class="cls-3" d="M312.71,89h1.91c1.9,0,3.33,0,3.33-2.3V67.14c0-2.16-2.58-2.58-3.62-3.14V63c5.08-2.16,7.87-4,8.55-4,.41,0,.62.21.62.95V66.2h.15c1.73-2.71,4.67-7.17,8.9-7.17a3.89,3.89,0,0,1,1.48.23,3.74,3.74,0,0,1,1.28.78,3.92,3.92,0,0,1,.88,1.22,3.66,3.66,0,0,1,.33,1.46,3.31,3.31,0,0,1-.19,1.32,3.42,3.42,0,0,1-.69,1.14,3.32,3.32,0,0,1-1.08.78,3.26,3.26,0,0,1-1.3.31c-2.17,0-2.17-1.67-4.6-1.67A5.87,5.87,0,0,0,325,66.54a5.94,5.94,0,0,0-1.47,3.83V86.73c0,2.3,1.39,2.3,3.34,2.3h3.9v1.8c-3.81-.07-6.75-.14-9.74-.14s-5.78.07-8.29.14Z"/><path class="cls-3" d="M339.54,81.12a9.17,9.17,0,0,0,8.78,8.49,4.72,4.72,0,0,0,2.11-.15,4.93,4.93,0,0,0,1.85-1,5,5,0,0,0,1.25-1.71,4.89,4.89,0,0,0,.42-2.07c0-8.21-15.2-5.57-15.2-16.78a9.54,9.54,0,0,1,3.46-6.8,9.79,9.79,0,0,1,3.45-1.82,9.59,9.59,0,0,1,3.88-.29,18.3,18.3,0,0,1,7.94,2L358,68.1h-1.6a7.16,7.16,0,0,0-4.79-6.5,7.25,7.25,0,0,0-2.81-.38,4.67,4.67,0,0,0-2,.18,4.83,4.83,0,0,0-1.74.94,4.75,4.75,0,0,0-1.22,1.56,4.93,4.93,0,0,0-.51,1.91c0,8.16,16.15,5.65,16.15,16.57,0,4.6-3.68,9.51-12,9.51A18.36,18.36,0,0,1,339,89.52l-.77-8Z"/><path class="cls-3" d="M422.35,54.8h-1.74a13.25,13.25,0,0,0-14.89-11.4A19.88,19.88,0,0,0,391,50.06a19.78,19.78,0,0,0-4.89,15.41,22.67,22.67,0,0,0,20.75,24.16,14.13,14.13,0,0,0,14-12l1.6.42-1.6,10.16a39.05,39.05,0,0,1-15.39,3.7,24.77,24.77,0,0,1-26.6-26.19,25.59,25.59,0,0,1,26.38-24.51,50.19,50.19,0,0,1,16.43,3.7Z"/><path class="cls-3" d="M424.89,89h1.32c2,0,3.34,0,3.34-2.3V47.88c0-4.53-1-4.67-3.68-5.44V41.33a44.38,44.38,0,0,0,7.16-3,6.86,6.86,0,0,1,1.53-.77c.42,0,.56.42.56,1v48.1c0,2.3,1.53,2.3,3.48,2.3h1.18v1.81c-2.36,0-4.8-.14-7.31-.14s-5,.06-7.6.14Z"/><path class="cls-3" d="M469.59,87c0,1.26.77,1.32,1.9,1.32.84,0,1.9-.06,2.79-.06v1.46a68.92,68.92,0,0,0-10,2.16l-.35-.21V86a18.81,18.81,0,0,1-12.35,5.85,7.5,7.5,0,0,1-7.32-5.14,7.48,7.48,0,0,1-.34-3.15V65.77c0-1.82-.28-3.56-4.17-3.9V60.55c2.51-.07,8.07-.48,9-.48s.77.48.77,2V80c0,2.09,0,8.07,6,8.07a15.48,15.48,0,0,0,8.42-4.23V65.14c0-1.39-3.35-2.16-5.85-2.85V61c6.26-.42,10.17-.95,10.86-.95s.56.48.56,1.25Z"/><path class="cls-3" d="M483.43,82.94A7.49,7.49,0,0,0,490.6,90c7.45,0,10.59-7.31,10.59-13.51a13.31,13.31,0,0,0-11.14-13.78A10.74,10.74,0,0,0,483.4,66Zm0-18.94a17.66,17.66,0,0,1,10.37-5,13.57,13.57,0,0,1,13,14.63,17.6,17.6,0,0,1-16.65,18.24,20.68,20.68,0,0,1-9.68-2.43L478.35,91l-1.47-.76a80.94,80.94,0,0,0,.95-12.35V48c0-4.53-1-4.66-3.69-5.43V41.42a44.53,44.53,0,0,0,7.17-3,7.83,7.83,0,0,1,1.53-.77c.42,0,.55.42.55,1Z"/><path class="cls-3" d="M506,55.29h.53c.58,0,.86-.44.86-1.14a.83.83,0,0,0-.87-.95H506Zm-1.51,2.36v-.21c.55-.08.66-.06.66-.4V53.71c0-.46-.05-.63-.64-.6v-.23h2.3c.79,0,1.52.37,1.52,1.19a1.42,1.42,0,0,1-1.06,1.36l.73,1a4.52,4.52,0,0,0,.95,1v.14h-.88c-.41,0-.78-.88-1.61-2.07H506v1.49c0,.3.1.28.65.36v.21Zm2.23,1.28a3.65,3.65,0,0,0,2.71-6.2,3.6,3.6,0,0,0-1.87-1,3.66,3.66,0,0,0-2.12.19,3.7,3.7,0,0,0-1.65,1.35,3.64,3.64,0,0,0,2.93,5.68Zm0-8.15a4.5,4.5,0,0,1,4.14,2.77,4.52,4.52,0,0,1-1,4.89,4.48,4.48,0,0,1-4.88,1,4.52,4.52,0,0,1-2-1.65,4.6,4.6,0,0,1-.44-4.22A4.39,4.39,0,0,1,505,51.11,4.3,4.3,0,0,1,506.73,50.78Z"/></g></g></svg>