<svg xmlns="http://www.w3.org/2000/svg" viewBox="0 0 467.98 168.75"><defs><style>.cls-1,.cls-2{fill-rule:evenodd;}.cls-2{fill:#ffb200;}</style></defs><g id="Capa_2" data-name="Capa 2"><g id="Capa_1-2" data-name="Capa 1"><path class="cls-1" d="M380.82,62.94,381,95.05a17.57,17.57,0,0,0,1.27,6.07c4.33,9.48,19.36,8.62,28.1,2.94L406.46,96a15.19,15.19,0,0,1-10.35,2.2c-3.61-1.07-3.34-5.31-3.34-9.54v-26l24.23.06,19.45,44.46a32.06,32.06,0,0,1-4.87,10.88c-6.74,9.48-13,5.47-18.43,4.27L410.5,132a24.63,24.63,0,0,0,27-4.07,68.4,68.4,0,0,0,11.75-23L468,53.22H455.6L442.45,92.91C441.11,91.44,431,66,429.09,61.67a13,13,0,0,0-14-8.48c-7.35-.07-14.75,0-22.3,0V37.27a90.68,90.68,0,0,0-11.95,3.8V53l-9.61.13.06,9.54ZM244.65,53.21l.13-11.88a16.43,16.43,0,0,1,8.84-13.15,23.12,23.12,0,0,1,18.49.6l-2.2,9.42c-13.55-3-13.49-.47-13.49,15h14.75l-3.81,9.41-10.94.06V107a58.36,58.36,0,0,1-11.82-.13V62.77l-5.94-.13L235,53.29Zm79.69,28.38c.74,31.71,35.19,30,44.47,21.56a41,41,0,0,0-3.48-8.08,22.29,22.29,0,0,1-20.22,1.77C333.16,91,334,68.73,346.11,63.2a21.16,21.16,0,0,1,16,.13c1.77.8,3,1.67,4.42,2.27V55.32a31.12,31.12,0,0,0-21.17-2.65,28,28,0,0,0-21,29ZM198.71,74.52c.88-7.21,3.61-13.16,11.28-13.27,7.41-.13,10.95,6,11.29,13.42Zm33.11,28.63-3.33-7.88a72.08,72.08,0,0,1-9.15,3.14,15.73,15.73,0,0,1-7.34.5,15.73,15.73,0,0,1-11.47-8.54,15.79,15.79,0,0,1-1.62-7.18H233.4c0-12.09-2.14-26-15.63-30.17a24.41,24.41,0,0,0-19,1.77c-18.68,11.21-17.75,53.87,15,53.47a30.74,30.74,0,0,0,18-5.15Zm51.67-28.5c.6-7.28,3.95-13.35,11.42-13.42,7.2,0,10.87,6.28,10.94,13.42Zm-12,7.74c1.28,20,16.81,29.38,35.79,24.91a75.92,75.92,0,0,0,9.35-3.68l-3.34-8.41a27.22,27.22,0,0,1-19.69,2.61,15,15,0,0,1-9.95-14.56l34.58-.06c0-15.76-4.74-31.17-22.9-31.31-17.75-.2-24.75,14.75-23.87,30.5Z"/><path class="cls-2" d="M102.71,0c46.93,0,77.81,37.75,68.9,84.38A107.35,107.35,0,0,1,70.49,168.75c-47,0-77.82-37.74-69-84.37A107.44,107.44,0,0,1,102.69,0Zm22.42,10.93a62.11,62.11,0,0,1,39.38,73.45,99,99,0,0,1-84.12,76.93c-3.17-.11-3.22-1.9-3.32-4.55.15-5.51.36-11.08.51-16.6,0-.81-.25-1.07-.61-1.17a62.5,62.5,0,0,1-12.1-2.56,74.14,74.14,0,0,1-13-6.94c-2-1-1.77-5.56-1.69-7.36.35-3.27,2.76-10.87,6.64-11.23,4.64-.26,6.84,2.19,11.44,4.42A34.64,34.64,0,0,0,96,117.47a7.18,7.18,0,0,0,2.33-1.76,6.85,6.85,0,0,0,1.42-2.54,7.1,7.1,0,0,0,.29-2.9,7,7,0,0,0-.92-2.76c-3.27-6.85-19-12.46-26-15.92A35.54,35.54,0,0,1,49.6,52.11a32,32,0,0,1,27-24.51V21.41a90,90,0,0,0-38.2,24,82.2,82.2,0,0,0-25.33,58.63,59.57,59.57,0,0,0,33,53.06A62.21,62.21,0,0,1,8.64,84.38,98.79,98.79,0,0,1,96,7.21c1.63,1,1.77,1.12,2.61,3.31-.36,5.17-.67,10.32-1,15.48a46.91,46.91,0,0,1,22,9.19c.2,11.85-8.69,16.8-12.06,15a120.07,120.07,0,0,0-16.19-5,17.08,17.08,0,0,0-10.17,1.17c-4,1.89-5.87,4.7-4,9.09a18.47,18.47,0,0,0,7.31,7.25C93,67.38,101.51,72,110,76.62a38.9,38.9,0,0,1,16,16,34,34,0,0,1,1.58,19.61,31.7,31.7,0,0,1-15.38,20A43.65,43.65,0,0,1,99,137.25c-.15,2.76-.25,5.46-.41,8.22a1.36,1.36,0,0,0,.56.11,1.38,1.38,0,0,0,.57-.11,96.34,96.34,0,0,0,26.4-14.56,90.73,90.73,0,0,0,26-32.18,78.51,78.51,0,0,0,7.65-24.36,58.18,58.18,0,0,0-34.68-63.44Z"/></g></g></svg>