<svg xmlns="http://www.w3.org/2000/svg" viewBox="0 0 574.23 356.5"><defs><style>.cls-1{fill:#02686f;}.cls-2{fill:#31b14a;}.cls-3{fill:#f7f8f8;}.cls-4{fill:#036970;}.cls-5{fill:#fdfefe;}.cls-6{fill:#076b71;}</style></defs><g id="Capa_2" data-name="Capa 2"><g id="Capa_1-2" data-name="Capa 1"><path class="cls-1" d="M282.26,237.16c-2.38,3.94-2.65,8-1.45,12.48,2.21,8.18,4.06,16.47,6.25,24.66.71,2.69.56,4-2.55,5q-83.92,26.55-167.74,53.41c-2.92.93-3.73-.11-4.6-2.47Q95,283.66,77.8,237.12c1.82-.12,3.64-.33,5.45-.34,13,0,26-.17,39,.09,4,.08,5.08-1.19,4.92-5.06-.3-7.14-.23-14.32,0-21.47.12-4.42-2-10.08,1-12.91,2.7-2.59,8.26-.74,12.55-.91,17-.68,33.58-3.09,48.12-12.74,14.24-9.44,20.08-23,18.54-39.9-1.46-15.94-10.58-26.08-24.68-32.38-13.31-6-27.42-8.08-41.84-8.22-19.65-.19-39.3,0-58.95-.25-4.45-.06-5.87,1-5.84,5.68.21,39,.13,77.93.08,116.9,0,1.73.77,3.67-.81,5.2Q38.87,132.53,2.48,34.24c-4.07-11-4.13-10.91,7.55-11.52q71.84-3.78,143.68-7.61,45.66-2.43,91.3-5c52.38-2.9,104.76-5.75,157.13-8.86,4.87-.29,7.19.89,9.23,5.54q17.79,40.42,36.37,80.5c2.05,4.45,2.21,7.5-.54,12.07-8.59,14.22-16.24,29-24.26,43.59-1.31-1.43-.69-3.18-.7-4.78-.05-10.31-.15-20.62.05-30.93.06-3.3-.94-4.23-4.2-4.2-14.14.16-28.28.2-42.42,0-3.76-.06-4.74,1-4.72,4.76.14,33.43.07,66.87.1,100.3,0,7,.19,14,.29,20.93,1,9.74-5.91,16.45-9.57,24.39-1,2.07-3.35,2.52-5.57,2.7-2.86.23-2.2-2.6-2.76-3.81a84.75,84.75,0,0,1-3.88-10.77c-1-3.2-4.13-7.08.39-10.42.43-.32-.07-1.89-.14-2.88.08-8.75.12-17.5.26-26.25,0-2.32-.62-2.87-2.89-2.05-4.32,1.58-8.74,2.9-13.12,4.33-2.37.39-4.74.78-7.11,1.19-1.5.26-3,.6-2.28,2.72l0,.07c.61-2.16-.95-2.1-2.24-2.05-2.45.1-4.89.36-7.34.55-6.13-.5-12.27-.76-18.24-2.53-17.36-5.14-27-19.16-25.82-37.88,1.07-17.33,12.29-29.5,29.95-32.25,14.83-2.31,28.83.71,42.16,7.19,3,1.48,4,1.15,3.9-2.42-.16-9.32-.16-18.65.08-28,.07-3-1.22-4-3.71-4.84-12.3-4.43-25.07-5-37.93-5-22.46,0-43.74,4.37-62.21,18a63.74,63.74,0,0,0,6.14,106.71C259.61,231.69,270.84,234.68,282.26,237.16ZM365.77,61.25c0,17.24,12.31,28.81,30.71,28.91s31.32-11.71,31.33-28.89c0-17.46-12.45-29.14-31.06-29.11C377.93,32.19,365.76,43.62,365.77,61.25Z"/><path class="cls-2" d="M324.63,208.25l0-.07c7.91-.83,12,3.75,14.25,10.45,3.77,11.07,7.36,22.2,11,33.3a36.05,36.05,0,0,0,3.44,7.6c2.94,4.83,5.28,5.07,8.55.29s6.39-9.82,9.28-14.91c8.21-14.42,16.62-28.75,24.32-43.45,22.43-42.81,46.7-84.56,71.39-126.08A421.58,421.58,0,0,1,495,34.16c13.56-17.63,31.59-27,53-30.84,6.06-1.07,12.16-2,18.28-2.67,2-.23,4.93-1.91,6,1.27s3.35,6,.47,9.69C564.56,22.26,556.56,33.12,548.64,44A1853.33,1853.33,0,0,0,397.53,290c-6.28,12.29-12.3,24.68-17.76,37.36-3.45,8-8.11,15.32-15,20.88-17.75,14.31-42.34,9.48-53.3-10.44-6.63-12.07-10.14-25.26-13.41-38.49-3.46-14-6.45-28.2-9.78-42.27-2.47-10.42-1.66-20.33,4-29.64h0C301.32,218.17,311,209.82,324.63,208.25Z"/><path class="cls-3" d="M75.24,230.81c1.58-1.53.81-3.47.81-5.2,0-39,.13-77.93-.08-116.9,0-4.73,1.39-5.74,5.84-5.68,19.65.27,39.3.06,58.95.25,14.42.14,28.53,2.26,41.84,8.22,14.1,6.3,23.22,16.44,24.68,32.38,1.54,16.89-4.3,30.46-18.54,39.9-14.54,9.65-31.13,12.06-48.12,12.74-4.29.17-9.85-1.68-12.55.91-2.95,2.83-.85,8.49-1,12.91-.19,7.15-.26,14.33,0,21.47.16,3.87-.88,5.14-4.92,5.06-13-.26-26-.11-39-.09-1.81,0-3.63.22-5.45.34C77.14,234.94,74.52,233.55,75.24,230.81Zm51.23-80.95c0,5,0,10,0,14.94,0,1.94.42,3.23,2.72,3.15,6.65-.22,13.32-.23,19.59-2.92,6.5-2.79,9.88-8.34,9.75-15.9-.12-7.25-3.63-12.19-10.43-14.83-6.21-2.41-12.7-2.2-19.18-2.25-2.52,0-2.45,1.63-2.44,3.36C126.48,140.23,126.47,145,126.47,149.86Z"/><path class="cls-3" d="M282.26,237.16c-11.42-2.48-22.65-5.47-32.89-11.36a63.74,63.74,0,0,1-6.14-106.71c18.47-13.68,39.75-18,62.21-18,12.86,0,25.63.58,37.93,5,2.49.89,3.78,1.86,3.71,4.84-.24,9.32-.24,18.65-.08,28,.07,3.57-.86,3.9-3.9,2.42-13.33-6.48-27.33-9.5-42.16-7.19C283.28,136.84,272.06,149,271,166.34c-1.15,18.72,8.46,32.74,25.82,37.88,6,1.77,12.11,2,18.24,2.53-.62,2-2.34,1.48-3.71,1.46a8.06,8.06,0,0,0-6.22,2.51c-3.86,4-8.2,7.58-11.4,12.25-1,1.43-1.89,2.65-1.53,4.44h0C286.81,228.53,285.89,234.23,282.26,237.16Z"/><path class="cls-3" d="M371.34,229c-.1-7-.29-13.95-.29-20.93,0-33.43,0-66.87-.1-100.3,0-3.73,1-4.82,4.72-4.76,14.14.22,28.28.18,42.42,0,3.26,0,4.26.9,4.2,4.2-.2,10.31-.1,20.62-.05,30.93,0,1.6-.61,3.35.7,4.78-.78,4.4-4.47,7.08-6.48,10.83-13.06,24.34-26.63,48.4-39.95,72.6C375.27,228.65,373.81,229.61,371.34,229Z"/><path class="cls-4" d="M433.69,231.62c15-25.6,29.23-50,43.48-74.35.25-.43.47-.88,1.1-2.08l18.6,41.14c1.57,3.48,3.09,7,4.72,10.44.86,1.81,1,2.9-1.39,3.65C478.38,217.31,456.6,224.3,433.69,231.62Z"/><path class="cls-3" d="M334.06,204.27c4.38-1.43,8.8-2.75,13.12-4.33,2.27-.82,2.93-.27,2.89,2.05-.14,8.75-.18,17.5-.26,26.25-1.61-.07-3.7.4-4.33-1.53C342.81,218.63,339.64,210.85,334.06,204.27Z"/><path class="cls-3" d="M365.77,61.25c0-17.63,12.16-29.06,31-29.09,18.61,0,31.08,11.65,31.06,29.11,0,17.18-12.82,29-31.33,28.89S365.78,78.49,365.77,61.25Z"/><path class="cls-5" d="M292.19,227.41c-.36-1.79.55-3,1.53-4.44,3.2-4.67,7.54-8.24,11.4-12.25a8.06,8.06,0,0,1,6.22-2.51c1.37,0,3.09.58,3.71-1.46,2.45-.19,4.89-.45,7.34-.55,1.29,0,2.85-.11,2.24,2.05C311,209.82,301.32,218.17,292.19,227.41Z"/><path class="cls-6" d="M126.47,149.86c0-4.82,0-9.63,0-14.45,0-1.73-.08-3.38,2.44-3.36,6.48,0,13-.16,19.18,2.25,6.8,2.64,10.31,7.58,10.43,14.83.13,7.56-3.25,13.11-9.75,15.9-6.27,2.69-12.94,2.7-19.59,2.92-2.3.08-2.74-1.21-2.72-3.15C126.51,159.82,126.47,154.84,126.47,149.86Z"/></g></g></svg>