<svg xmlns="http://www.w3.org/2000/svg" viewBox="0 0 537.39 417.09"><defs><style>.cls-1{fill:#033c71;}.cls-2{fill:#fda401;}</style></defs><g id="Capa_2" data-name="Capa 2"><g id="Capa_1-2" data-name="Capa 1"><path class="cls-1" d="M415.17,259.14q-32.48,0-64.94,0c-9.05,0-12.21-3.2-12.22-12.35q0-47.21,0-94.41c0-9.63,3.11-12.42,12.95-12.72,20-.62,39.93,0,59.89.06,23,.1,45.93-.51,68.91-.19,9.88.14,13.15,6,13.14,13.1-.07,31.31,0,62.61,0,93.91,0,9.15-3.59,12.6-12.74,12.61Zm.88-80.6c-6.93.35-11.19,2.94-13.58,8-2.49,5.28-2.21,10.92,2,14.79,3.49,3.21,3.8,6.54,3.65,10.52-.06,1.83-.05,3.66,0,5.49.14,4.51,2.91,7.55,6.84,7.56s6.85-3.08,7.08-7.49a76.05,76.05,0,0,0,0-8c-.15-2.92.34-5.12,2.9-7.27,4.32-3.62,5.1-9.74,2.82-15.14C425.63,182,420.23,178.46,416.05,178.54Z"/><path class="cls-1" d="M418.85,372.76c0,13.78-.16,26.57.09,39.34.08,3.91-.92,5.25-4.92,4.95a108.68,108.68,0,0,0-15,0c-3.7.24-4.76-.8-4.74-4.63.18-29.48.1-59,.1-88.46,0-4.5.1-9,0-13.49-.08-2.41.81-3.24,3.18-3.18,5,.11,10,.32,15-.06,4.1-.31,5.38,1.22,4.82,5a21.22,21.22,0,0,0,0,3.18c1.72.75,2.16-.51,2.74-1.14,11.35-12.28,31.93-10.86,43.61-1.15,19.16,15.94,17.4,50.82-3.33,64.47C447.32,386.18,430.79,384.56,418.85,372.76Zm34.39-29.09c.13-11.33-6.62-19-17-19.26-10-.27-18.25,8.28-18.32,19s8,19.35,18,19.39S453.11,354.89,453.24,343.67Z"/><path class="cls-1" d="M.09,327.19c0-16,.12-32-.09-48,0-3.58,1-4.37,4.43-4.34q31,.24,62,0c3.07,0,4.5.53,4.25,4a97.81,97.81,0,0,0,0,13.48c.21,3.26-1.06,3.84-4,3.81-12.83-.15-25.66,0-38.49-.13-3,0-4.18.64-4,3.84a104.26,104.26,0,0,1,0,13c-.21,3.22,1,3.88,4,3.84,12-.15,24,.06,36-.13,3.26-.06,4.37.82,4.14,4.13a87.09,87.09,0,0,0,0,12c.2,3.09-.79,4-3.89,3.93-12-.17-24,0-36-.13-3.12,0-4.47.58-4.25,4.05a118.57,118.57,0,0,1,0,14.48c-.17,3.14.87,3.92,3.93,3.88,13.32-.17,26.66.18,40-.21,4.66-.14,5.63,1.37,5.27,5.54a86.78,86.78,0,0,0,0,12.49c.17,2.95-1,3.56-3.69,3.54q-32.75-.15-65.47,0c-3.26,0-4.2-.86-4.16-4.14C.18,359.84.09,343.52.09,327.19Z"/><path class="cls-2" d="M376.18,139.14c-4.81,0-11.27,1.89-14-.49-3.19-2.79-1-9.41-1-14.35,0-29.92,22-53.24,51.84-55.12,28.76-1.82,55.35,22.34,56.18,51.09.15,5.16,0,10.33.19,15.49.1,2.75-.73,3.83-3.64,3.77-7.82-.16-15.66-.13-23.48,0-2.62,0-3.43-.9-3.45-3.47,0-5.64.44-11.3-.6-16.94-2.15-11.7-12.63-19.8-24.92-19-11.45.7-20.9,10.72-21.18,22.51-.11,4.5-.17,9,0,13.49.09,2.61-.83,3.54-3.42,3.45-4.16-.16-8.33,0-12.5,0Z"/><path class="cls-1" d="M303.94,306.32c7.79,0,15.57.12,23.35-.06,2.7-.07,3.26,1.47,3.95,3.45,5.08,14.63,10.22,29.24,15.78,45.1,2.6-8.31,4.86-15.49,7.1-22.68,2.31-7.43,4.73-14.82,6.84-22.29.7-2.46,1.6-3.65,4.35-3.58,6.32.18,12.65.12,19,0,2.5,0,3.21.42,2.15,3.11-11.51,29.24-22.5,58.69-34.46,87.74-8,19.3-22.05,20.44-40,18.4-2.15-.24-3.12-1.26-2.71-3.67.79-4.74,1.46-9.52,1.86-14.31.23-2.68,1.44-2.84,3.61-2.49,10.88,1.77,19.28-5,19.33-15.65,0-1.39-.92-2.8-1.5-4.16q-13.53-31.75-27-63.51C304.81,310.13,303.64,308.59,303.94,306.32Z"/><path class="cls-1" d="M123.53,227.62c-7.66,0-15.33.15-23-.06-4.1-.11-3.94,1.6-2.63,4.48,4.48,9.88,20.21,13,29.21,5.22,3.38-2.94,5.4-2.94,8.59-.43a61.67,61.67,0,0,0,9.22,5.9c2.57,1.36,2.35,2.47.64,4.39-6.47,7.32-14.75,11.1-24.19,12.7-17.26,2.93-34.88-4.44-42.8-18.17C65.1,218.3,77,183.31,111.72,181.91c26.78-1.08,39.79,18.84,38.77,42.89-.11,2.69-1.42,2.86-3.47,2.84C139.19,227.59,131.36,227.62,123.53,227.62Zm-11.48-15.08c4.33,0,8.66-.13,13,.05,3.27.13,3.53-1.27,2.76-4-2.08-7.2-7-10.75-14.86-10.56s-14.49,5-16.23,11.61c-.67,2.53.32,2.88,2.37,2.86C103.4,212.51,107.73,212.54,112.05,212.54Z"/><path class="cls-1" d="M112.1,316.94c7.81-10.43,17.4-13.75,28.67-11.48,12.31,2.47,20,11.75,20.36,24.79.4,15.8.07,31.62.22,47.43,0,2.78-1,3.31-3.48,3.24-5.32-.16-10.66-.26-16,0-3.26.18-3.82-1.06-3.78-4,.15-11.65,0-23.3.07-35a39.63,39.63,0,0,0-.89-8.4c-1-4.58-3-8-8-8.92a12.58,12.58,0,0,0-13,5.25,20.44,20.44,0,0,0-3.22,11.8c.08,11.65-.07,23.3.09,34.94,0,3.16-.67,4.42-4.09,4.25-5.64-.29-11.31-.19-17,0-2.54.07-3.49-.64-3.48-3.33q.14-33.69,0-67.39c0-2.59.76-3.5,3.4-3.41a135.92,135.92,0,0,0,15,0c4.09-.3,5.87.89,5.16,5.12A37.89,37.89,0,0,0,112.1,316.94Z"/><path class="cls-1" d="M.09,205.3C.09,189.15.18,173,0,156.84c0-3.27.88-4.28,4.15-4.13a156.2,156.2,0,0,0,16.48,0c3.64-.21,4.75.71,4.71,4.57-.2,24.64,0,49.29-.19,73.93,0,3.92,1,5,4.88,4.88,10.82-.29,21.65,0,32.47-.19,3.18-.06,3.95.91,3.8,3.92a124.91,124.91,0,0,0,0,14.48c.2,3.25-1,3.79-3.94,3.78-19.48-.13-39-.18-58.45,0-3.63,0-3.92-1.42-3.9-4.34C.15,237.6.09,221.45.09,205.3Z"/><path class="cls-1" d="M300.13,192.59c-1.7,1.62-3.27,3.11-4.83,4.61-2.52,2.44-4.64,5.67-7.63,7.11-3.61,1.73-5.54-3.06-8.75-4-4.24-1.3-8.41-1.94-12.69-.61-2.33.72-4.07,2.05-4.14,4.93a5,5,0,0,0,3.86,5.17c4.1,1.28,8.37,2,12.46,3.34,8.16,2.61,16.24,5.62,19.62,14.55,4.32,11.39-1.54,24.34-13.51,29-15.77,6.14-30.91,4-45.24-4.82-3.05-1.87-4.51-3.79-.8-6.45a10.45,10.45,0,0,0,1.4-1.42c2.67-2.76,4.87-6.51,8.11-8,3.76-1.74,5.95,3.42,9.42,4.56,4.48,1.48,8.82,2.86,13.59,1.53,2.76-.78,4.91-2,5.16-5.24s-1.57-5-4.19-6.09-5.65-1.84-8.51-2.67c-2.22-.65-4.47-1.21-6.7-1.81-8.93-2.38-15.38-7.47-16.51-17.07-1.27-10.85,3.66-18.92,13.59-23.74C267.4,178.85,288.88,182,300.13,192.59Z"/><path class="cls-1" d="M213.72,304c7.95.59,16.62,2.24,24.23,7.71,2.47,1.77,2.42,2.87.36,4.9-3.67,3.62-7.11,7.48-10.58,11.29-1.23,1.35-1.88,1.91-3.81.41-7.69-6-16.69-5.51-22.43.86-6.93,7.69-7.57,19.33-1.46,26.42,6.29,7.29,16.75,9.08,24.14,3.66,2.45-1.79,3.53-1.92,5.31.56,2.82,3.91,6,7.58,9,11.3,1.16,1.41,1.89,2.39-.12,3.9-15.43,11.52-45.23,10.52-58.77-7-13.23-17.16-10-43.35,7.22-56C193.28,307.15,203.53,304,213.72,304Z"/><path class="cls-1" d="M492.27,342.23c0-4.66-.17-9.33.05-14,.14-2.94-.6-4-3.81-4-7.84,0-7.84-.15-7.84-8.25v-1c0-8.33,0-8.48,8.13-8.56,3,0,3.63-1.09,3.51-3.77-.18-4,.08-8-.09-12-.12-2.61.36-3.95,3.45-3.83,5.82.24,11.66.19,17.48,0,2.51-.07,3.08.88,3,3.17-.15,4.5.05,9-.08,13.49-.06,2.16.66,2.94,2.83,2.86,3.66-.13,7.34.11,11-.08,2.67-.14,3.5.86,3.37,3.44-.24,4.65,1.44,10.51-.8,13.6s-8.37.87-12.79.9c-2.82,0-3.68.82-3.63,3.66.18,8.49,0,17,.08,25.47,0,8.06,4.26,11.83,12.09,10.07,3.7-.84,4.32.17,4.13,3.39a25.83,25.83,0,0,0,.24,7c1.18,5.42-1.31,7.65-6.3,8-7.3.48-14.6,1.12-21.62-1.92s-10.45-8.77-11.57-16.17C492,356.54,492.29,349.38,492.27,342.23Z"/><path class="cls-1" d="M206.38,240.45c0,5-.09,10,.05,15,0,1.91-.75,2.59-2.43,3-8.58,2.14-17,2.43-25.41-1-10.27-4.2-11.85-13.22-12.28-22.54s-.28-18.66,0-28c.11-3.8-.76-5.17-4.84-5-7.26.34-7.27.07-7.27-7.18v-1.5c0-8.69,0-8.79,8.81-9.18,2.37-.11,3.22-.77,3.13-3.17-.15-4.32.06-8.66-.08-13-.08-2.41.38-3.69,3.23-3.59,5.82.19,11.66.17,17.48,0,2.77-.07,3.37,1.12,3.29,3.58-.15,4.33.07,8.67-.08,13-.08,2.34.59,3.28,3.06,3.15,3.66-.19,7.34.13,11-.11,2.76-.18,3.38.91,3.26,3.43a102.24,102.24,0,0,0,0,11.48c.18,2.81-1,3.35-3.46,3.23-3.49-.18-7,.11-10.49-.1-2.63-.15-3.43.74-3.38,3.36.15,8.5,0,17,.11,25.49s2.67,10.65,11,10.24C202.65,241,204.26,240.7,206.38,240.45Z"/><path class="cls-1" d="M272.28,316.21c5.68-7.54,12.54-11.7,21.83-11.78,3.19,0,4.47.9,4.11,4.26-.54,4.95-.83,9.94-1,14.92-.07,2.07-.84,2.44-2.69,2.38a37.78,37.78,0,0,0-8.45.27c-7.51,1.48-12.71,8.61-12.8,17.41-.12,10.81-.13,21.62,0,32.43.05,3.09-.58,4.43-4,4.24-5.47-.3-11-.21-16.46,0-2.67.09-3.77-.46-3.75-3.48q.18-33.43,0-66.86c0-2.75.65-3.84,3.58-3.71a138.25,138.25,0,0,0,15,0c3.7-.24,5.26.8,4.68,4.64A36.43,36.43,0,0,0,272.28,316.21Z"/><path class="cls-2" d="M332.19,34a8.28,8.28,0,0,1,6.23,2.23c8.36,6.82,16.72,13.64,25,20.58,3.62,3,4.37,7.09,2.43,11.25s-5.45,5.55-9.87,5.17a7.92,7.92,0,0,1-4.43-2c-8.34-6.84-16.72-13.65-25.06-20.48-3.67-3-4.55-7-3-11.21C324.83,35.7,327.86,33.79,332.19,34Z"/><path class="cls-2" d="M473.08,73.25a8.11,8.11,0,0,1-8.43-5.48c-1.49-3.79-1.17-7.79,2.08-10.56,8.73-7.42,17.59-14.71,26.61-21.77,3.8-3,9.56-1.86,12.56,1.8s3.14,8.85-.66,12.16C496.35,57.14,487.1,64.47,478,72,476.63,73.06,475,73.24,473.08,73.25Z"/><path class="cls-2" d="M512.11,106c5.33,0,10.66-.08,16,0s9,3.41,9.27,8.42c.34,5.47-2.65,9.46-8.25,9.8a288.68,288.68,0,0,1-34.43,0,9,9,0,0,1-8.55-9.3c.16-5,4.13-8.72,9.49-9h16.49Z"/><path class="cls-2" d="M424.59,25.55c0,5.32.22,10.66-.06,16-.34,6.39-4,9.83-9.72,9.58-5.21-.24-8.68-4.16-8.72-10.08q-.09-15.48,0-31c0-5.95,3.49-9.83,8.73-10,5.71-.24,9.37,3.16,9.71,9.57C424.81,14.89,424.59,20.22,424.59,25.55Z"/><path class="cls-2" d="M318.63,106c5.15,0,10.31-.08,15.46,0,5.57.1,9.34,3.59,9.62,8.71a8.81,8.81,0,0,1-8.69,9.55,285.62,285.62,0,0,1-33.87,0c-5.59-.36-8.57-4.33-8.22-9.81.31-5,3.83-8.3,9.24-8.41S313.14,106,318.63,106Z"/><path class="cls-1" d="M218.68,188.9c-.54-2.82-.05-5.31,4-5.93a8.54,8.54,0,0,0,3.81-2.23c1.74-1.51,4-3.31,3.53-5.65-.42-2.16-3.11-.72-4.73-1.2-5.26-1.54-8.51-6.28-8.1-12.21A12,12,0,0,1,227.3,151c8.79-1.3,15.54,3.68,16.38,13.17,1.11,12.56-4.39,25.39-18.72,29.89C218.68,196,218.68,196,218.68,188.9Z"/></g></g></svg>