<svg xmlns="http://www.w3.org/2000/svg" viewBox="0 0 364.67 143.33"><defs><style>.cls-1{fill:#004f9b;}.cls-2{fill:#ffa600;}</style></defs><g id="Capa_2" data-name="Capa 2"><g id="Capa_1-2" data-name="Capa 1"><path class="cls-1" d="M277.54,106.44H237.37a2.29,2.29,0,1,1,0-4.57h39.95a15.78,15.78,0,0,0,12.59-15.38c.47-12.28-6.58-13.51-7.69-13.63H256.43a14.68,14.68,0,0,1-12.21-16A20.64,20.64,0,0,1,260.77,37a2,2,0,0,1,.48,0h36.18A2.28,2.28,0,0,1,299,40.89a2.26,2.26,0,0,1-1.61.67H261.52a16.17,16.17,0,0,0-12.74,15.38v.17A10.49,10.49,0,0,0,257,68.29h25.45c.13,0,12.73,1,12.06,18.37A20.31,20.31,0,0,1,278,106.38,1.74,1.74,0,0,1,277.54,106.44Z"/><path class="cls-1" d="M353.26,106.68H316c-4.89-.52-14.19-3.92-14.4-13.05a299,299,0,0,1,6.56-40.45,1.71,1.71,0,0,1,.09-.3C308.44,52.28,313.89,38,326,38h26.67a2.35,2.35,0,0,1,.64.09c.46.14,11.4,3.41,11.4,12.82a166.84,166.84,0,0,1-2.41,21.86,2.3,2.3,0,0,1-.78,1.35,2.23,2.23,0,0,1-1.45.54l-51.6.43a119.93,119.93,0,0,0-2.29,18.49c.16,7.06,9.08,8.46,10.21,8.61h36.91a2.28,2.28,0,0,1,1.61,3.9,2.31,2.31,0,0,1-1.61.66ZM312.52,54.32c-.26,1.17-1.78,8.18-3.28,16.13l48.81-.4a151,151,0,0,0,2-19.21c0-5.33-6.41-7.85-7.84-8.34H325.94C317.51,42.5,313,53,312.52,54.3Z"/><path class="cls-1" d="M167.79,136.62a2.73,2.73,0,0,1-.41,0,2.41,2.41,0,0,1-.83-.33,2.22,2.22,0,0,1-.64-.62,2.37,2.37,0,0,1-.36-.81,2.42,2.42,0,0,1,0-.89s3.63-20.1,7.3-40.2c1.83-10,3.66-20.1,5-27.64.7-3.77,1.28-6.92,1.7-9.09a37.83,37.83,0,0,1,.83-3.8h0A26.66,26.66,0,0,1,196.9,37.67a3.21,3.21,0,0,1,.62,0c1.51,0,16,0,25.52,0,2.21-.05,14,4.43,12.66,13.79v.25l-6.36,38.85a.43.43,0,0,1-.05.25,23.43,23.43,0,0,1-14.61,15.31,2.91,2.91,0,0,1-.58.09l-23.45.7a1.31,1.31,0,0,1-.28,0,21.5,21.5,0,0,1-13.74-8.34c-2.52,13.87-5,27.78-6.58,36.28a2.35,2.35,0,0,1-.82,1.29A2.27,2.27,0,0,1,167.79,136.62Zm10-44.68a18.25,18.25,0,0,0,12.86,10.31l23-.66a19.08,19.08,0,0,0,11.19-12l6.29-38.56c.66-4.3-5.93-8.89-8.63-8.88h-21.2c-1.66,0-2.85,0-3.72-.05a22.94,22.94,0,0,0-12.88,12.52c-.39,1.82-3.5,18.74-6.88,37.29Z"/><path class="cls-2" d="M137,28a6.38,6.38,0,0,1-7.61,6.25A6.37,6.37,0,1,1,137,28Z"/><path class="cls-2" d="M116.19,12.74a6.37,6.37,0,1,0-6.37-6.37A6.37,6.37,0,0,0,116.19,12.74Z"/><path class="cls-2" d="M108.09,28a6.36,6.36,0,0,1-7.61,6.24,6.3,6.3,0,0,1-3.26-1.74A6.37,6.37,0,1,1,108.09,28Z"/><path class="cls-2" d="M129.86,121.05a6.37,6.37,0,1,0-6.37-6.37A6.37,6.37,0,0,0,129.86,121.05Z"/><path class="cls-2" d="M116.15,100.73a6.37,6.37,0,1,0-6.36-6.37A6.37,6.37,0,0,0,116.15,100.73Z"/><path class="cls-2" d="M88.08,99.61a5.26,5.26,0,1,0-5.27-5.26A5.25,5.25,0,0,0,88.08,99.61Z"/><path class="cls-2" d="M107.4,114.7a5.27,5.27,0,0,1-9,3.72,5.26,5.26,0,1,1,9-3.72Z"/><path class="cls-2" d="M87.7,142.22A5.27,5.27,0,1,0,82.43,137,5.26,5.26,0,0,0,87.7,142.22Z"/><path class="cls-2" d="M74.08,118.76A4.08,4.08,0,1,0,70,114.68,4.08,4.08,0,0,0,74.08,118.76Z"/><path class="cls-2" d="M23.93,76.11A4.09,4.09,0,1,0,19.85,72,4.08,4.08,0,0,0,23.93,76.11Z"/><path class="cls-2" d="M31.21,54.36a4.08,4.08,0,1,0-4.08-4.08A4.07,4.07,0,0,0,31.21,54.36Z"/><path class="cls-2" d="M49.13,28a4.07,4.07,0,0,1-.69,2.27,4.12,4.12,0,0,1-1.83,1.5,4.08,4.08,0,0,1-4.45-.89A4.12,4.12,0,0,1,41,28.78a4.07,4.07,0,0,1,.24-2.36,4.08,4.08,0,0,1,6.66-1.31A4.08,4.08,0,0,1,49.13,28Z"/><path class="cls-2" d="M63.18,6.85a4,4,0,0,1-.68,2.27,4.11,4.11,0,0,1-4.19,1.74,4.08,4.08,0,1,1,4.87-4Z"/><path class="cls-2" d="M59.48,141A4.08,4.08,0,1,0,55.4,137,4.07,4.07,0,0,0,59.48,141Z"/><path class="cls-2" d="M45.46,118.76a4.09,4.09,0,1,0-4.08-4.08A4.08,4.08,0,0,0,45.46,118.76Z"/><path class="cls-2" d="M31,98.44a4.08,4.08,0,1,0-4.08-4.08A4.08,4.08,0,0,0,31,98.44Z"/><path class="cls-2" d="M23.31,116.78a2.11,2.11,0,1,0-2.1-2.1A2.1,2.1,0,0,0,23.31,116.78Z"/><path class="cls-2" d="M10.18,96.45a2.11,2.11,0,1,0-2.11-2.1A2.1,2.1,0,0,0,10.18,96.45Z"/><path class="cls-2" d="M4.19,71.65a2.08,2.08,0,0,1-.35,1.16,2,2,0,0,1-.94.77,2,2,0,0,1-1.21.12,2.14,2.14,0,0,1-1.08-.57,2.11,2.11,0,0,1-.45-2.29,2.14,2.14,0,0,1,.77-.94,2.11,2.11,0,0,1,2.65.26A2.13,2.13,0,0,1,4.19,71.65Z"/><path class="cls-2" d="M9.61,52.41a2.1,2.1,0,1,0-2.11-2.1A2.1,2.1,0,0,0,9.61,52.41Z"/><path class="cls-2" d="M23.82,30.3a2.11,2.11,0,1,0-2.1-2.11A2.11,2.11,0,0,0,23.82,30.3Z"/><path class="cls-2" d="M59.27,99.61A5.26,5.26,0,1,0,54,94.35,5.25,5.25,0,0,0,59.27,99.61Z"/><path class="cls-2" d="M44.46,77.34a5.27,5.27,0,1,0-5.27-5.27A5.27,5.27,0,0,0,44.46,77.34Z"/><path class="cls-2" d="M64.34,50.28a5.26,5.26,0,0,1-10.42,1,5.19,5.19,0,0,1,.3-3,5.26,5.26,0,0,1,10.12,2Z"/><path class="cls-2" d="M73.67,33.25A5.27,5.27,0,1,0,68.41,28,5.27,5.27,0,0,0,73.67,33.25Z"/><path class="cls-2" d="M87.51,11.72a5.26,5.26,0,1,0-5.27-5.26A5.25,5.25,0,0,0,87.51,11.72Z"/><path class="cls-2" d="M73.32,78.44A6.37,6.37,0,1,0,67,72.07,6.37,6.37,0,0,0,73.32,78.44Z"/><path class="cls-2" d="M87.5,56.65a6.37,6.37,0,1,0-6.36-6.37A6.37,6.37,0,0,0,87.5,56.65Z"/><path class="cls-2" d="M116.15,143.33a6.37,6.37,0,1,0-6.36-6.36A6.37,6.37,0,0,0,116.15,143.33Z"/><path class="cls-2" d="M170.75,69.82H76.55v3.9h94.2Z"/><path class="cls-2" d="M121.84,48.32H92.22v3.9h29.62Z"/><path class="cls-2" d="M134.57,73.51l-16.3-25.17h4.55l16.3,25.17Z"/><path class="cls-2" d="M136.23,92.4H121.12v3.9h15.11Z"/><path class="cls-2" d="M132.64,96.28l13.52-22.79h3.9L136.54,96.28Z"/></g></g></svg>