<svg xmlns="http://www.w3.org/2000/svg" viewBox="0 0 285.71 87.46"><defs><style>.cls-1{fill:#142688;}</style></defs><g id="Capa_2" data-name="Capa 2"><g id="Capa_1-2" data-name="Capa 1"><path class="cls-1" d="M254.09,23.1h-3.27a142.38,142.38,0,0,0-10.91,32.7h20.75A241.16,241.16,0,0,0,254.09,23.1Zm31.62,64.34H267.17c-1.08,0-1.08,0-2.18-1.09l-2.18-9.8-1.09-2.18H235.55c-1.09,0-2.19,0-2.19,2.18l-3.26,9.82a1.25,1.25,0,0,1-.08.42,1.16,1.16,0,0,1-.59.59,1.25,1.25,0,0,1-.42.08H206.1L208.29,82,239.91,7.84c0-5.46,3.27-7.64,8.72-7.64H265c1.09,0,2.18,0,2.18,2.18l15.27,70.88a46.26,46.26,0,0,1,2.19,12c1.08,1.09,1.08,1.09,1.08,2.18ZM139.59,84.17,144,64.54a3.88,3.88,0,0,1,2.19,1.09A43.12,43.12,0,0,0,169,70a20.23,20.23,0,0,0,7.64-2.19c5.45-2.18,5.45-7.63,1.08-12A60.35,60.35,0,0,0,169,50.37a45.17,45.17,0,0,1-12-7.64A22.28,22.28,0,0,1,156,8.93C162.48,4.57,165.75.2,174.48.2a145.08,145.08,0,0,1,33.8,2.18h1.08A112.86,112.86,0,0,1,205,21a45.84,45.84,0,0,0-16.35-4.37,30.15,30.15,0,0,0-9.82,1.09,5.66,5.66,0,0,0-2.43.6,5.73,5.73,0,0,0-1.94,1.58,5.51,5.51,0,0,0-1.21,1.74,5.36,5.36,0,0,0,0,4.16,5.4,5.4,0,0,0,1.21,1.74l5.46,4.36a122,122,0,0,1,12,6.54,24.08,24.08,0,0,1,12,15.27,23.45,23.45,0,0,1-9.82,25.08,19.77,19.77,0,0,1-15.27,6.54,127.51,127.51,0,0,1-37.08-2.18c-1.09,2.18-1.09,2.18-2.18,1.09Zm-38.18,3.27a44.21,44.21,0,0,1,2.19-10.91c5.45-24,10.9-49.07,15.27-73C120,1.32,120,.23,122.13.23h19.63a329.11,329.11,0,0,1-7.63,34.86c-3.27,16.36-6.54,32.71-10.91,49.07,0,2.18-1.09,2.18-3.27,2.18ZM0,2.38C0,1.29,2.18.2,3.27.2H40.35a10.61,10.61,0,0,1,10.9,8.72l9.82,48c0,1.08,0,1.08,1.09,2.18a1.08,1.08,0,0,1,.31-.77,1.13,1.13,0,0,1,.36-.24,1.16,1.16,0,0,1,.42-.08L86.14,2.4c-1.08-1.09,0-2.18,1.09-2.18h22.9c0,1.09,0,1.09-1.09,2.18L75.24,82c-1.09,2.19-1.09,3.27-2.18,4.37s-3.27,0-5.46,0H51.25c-1.08,0-2.18,0-2.18-2.18L31.64,16.58A22.1,22.1,0,0,0,21.83,10,72.46,72.46,0,0,0,1.08,4.58Z"/></g></g></svg>